# xmcd
#
# Track frame offsets:
#	150
#	17775
#	36525
#	51450
#	67875
#	82950
#	100200
#	119400
#	135525
#	153675
#	173475
#	187275
#	204600
#	223125
#	240075
#	256125
#
# Disc length: 3679 seconds
#
# Revision: 1
# Processed by: cddbd v1.5.1PL2 Copyright (c) Steve Scherf et al.
# Submitted via: audiograbber 1.83.01
#
DISCID=e40e5d10
DTITLE=Various Artist - BHK-309
DYEAR=1900
DGENRE=Karaoke
TTITLE0=Hill, Faith - Mississippi Girl
TTITLE1=Paisley, Brad - Alcohol
TTITLE2=Messina, Jo Dee - My Give A Damn's Busted
TTITLE3=Wilson, Gretchen - All Jacked Up
TTITLE4=Brooks and Dunn - Play Something Country
TTITLE5=Keith, Toby - As Good As I Once Was
TTITLE6=Hill, Faith - Like We Never Loved At All
TTITLE7=Sugarland - Something More
TTITLE8=Evans, Sara - Real Fine Place To Start, A
TTITLE9=Yearwood, Trisha - Georgia Rain
TTITLE10=Nichols, Joe - Tequila Makes Her Clothes Fall Off
TTITLE11=Morgan, Craig - Redneck Yacht Club
TTITLE12=Urban, Keith - Making Memories Of Us
TTITLE13=Travis, Randy - Angels
TTITLE14=Keith, Toby - Honky Tonk U
TTITLE15=Rascal Flatts - Skin (Sarabeth)
EXTD=
EXTT0=
EXTT1=
EXTT2=
EXTT3=
EXTT4=
EXTT5=
EXTT6=
EXTT7=
EXTT8=
EXTT9=
EXTT10=
EXTT11=
EXTT12=
EXTT13=
EXTT14=
EXTT15=
PLAYORDER=
